<svg xmlns="http://www.w3.org/2000/svg" xmlns:xlink="http://www.w3.org/1999/xlink" width="2000" zoomAndPan="magnify" viewBox="0 0 1500 1499.999933" height="2000" preserveAspectRatio="xMidYMid meet" version="1.0"><path fill="#ffdbb4" d="M 379.878906 779.5 C 370.664062 783.785156 372.46875 787.054688 371.832031 796.753906 C 370.441406 817.929688 371.328125 838.644531 370.691406 859.457031 C 369.78125 889.285156 368.5625 942.460938 379.074219 971 C 404.367188 1039.65625 468.703125 1053.25 533.378906 1056.484375 C 621.910156 1060.914062 648.160156 1058.300781 737.003906 1058.300781 C 761.9375 1058.300781 850.417969 1053.964844 875.324219 1052.726562 C 906.976562 1051.136719 939.207031 1048.480469 970.667969 1046.90625 C 991.203125 1045.878906 1019.171875 1043.949219 1037.992188 1034.535156 C 1078.792969 1014.140625 1097.539062 968 1104.363281 924.765625 C 1110.027344 888.871094 1110.214844 872.640625 1110.214844 836.539062 C 1110.214844 831.398438 1108.71875 787.121094 1107.648438 779.367188 C 1107.394531 777.503906 1092.773438 785.867188 1090.386719 785.507812 C 1075.261719 783.238281 1056.535156 779.007812 1043.070312 771.527344 C 1015.003906 755.933594 995.449219 730.828125 969.414062 712.925781 C 944.441406 695.761719 915.710938 684.808594 890.917969 667.765625 C 867.003906 651.324219 845.628906 630.632812 823.714844 611.847656 C 802.433594 593.613281 779.382812 578.039062 754.894531 565.074219 C 752.035156 563.5625 739.703125 553.570312 736.609375 554.859375 C 735.042969 555.511719 735.722656 558.15625 735 559.695312 C 732.617188 564.757812 727.394531 568.261719 722.847656 571.289062 C 706.347656 582.292969 689.8125 593.550781 673.167969 604.320312 C 607.753906 646.648438 546.96875 695.996094 483.378906 740.886719 C 456.777344 759.660156 413.101562 764.023438 379.878906 779.5 Z M 379.878906 779.5 " fill-opacity="1" fill-rule="nonzero"/><path fill="#f5b685" d="M 374.214844 763.71875 C 420.351562 764.621094 450.390625 741.113281 483.804688 718.167969 C 503.320312 704.765625 531.472656 681.972656 553.355469 666.84375 C 586.203125 644.125 615.707031 620.789062 648.300781 597.644531 C 670.132812 582.144531 692.046875 565.660156 714.824219 551.652344 C 718.371094 549.472656 733.671875 537.644531 736.332031 540.941406 C 740.808594 546.484375 743.261719 557.21875 738.1875 561.226562 C 731.996094 566.117188 718.792969 573.804688 710.351562 580.25 C 703.167969 585.734375 686.480469 594.46875 665.363281 609.507812 C 644.652344 624.253906 592.015625 662.128906 584.242188 667.929688 C 515.824219 718.976562 544.390625 698.027344 474.867188 750.402344 C 461.890625 760.179688 439.277344 778.476562 418.964844 786.03125 C 410.261719 789.261719 402.777344 789.59375 395.757812 790.496094 C 392.429688 790.925781 384.148438 790.964844 378.390625 789.515625 C 375.222656 788.71875 372.558594 788.164062 372.511719 785.34375 C 372.316406 773.445312 372.839844 773.121094 374.214844 763.71875 Z M 374.214844 763.71875 " fill-opacity="1" fill-rule="nonzero"/><path fill="#f5b685" d="M 736.195312 560.878906 C 737.492188 561.925781 782.515625 594.289062 786.9375 597.707031 C 828.585938 629.871094 831.847656 632.84375 873.394531 663.613281 C 917.285156 696.121094 964.5 732.40625 1012.691406 763.214844 C 1033.667969 776.621094 1062.34375 792.609375 1088.597656 791.378906 C 1093.242188 791.167969 1105.117188 790.015625 1107.566406 785.046875 C 1108.457031 783.238281 1108.035156 778.230469 1107.917969 776.042969 C 1107.730469 772.398438 1108.167969 768.988281 1106.953125 765.410156 C 1105.621094 761.476562 1095.601562 764.519531 1091.453125 764.585938 C 1072.308594 764.898438 1058.039062 761.667969 1040.773438 752.691406 C 1017.074219 740.367188 996.566406 723.101562 974.859375 707.808594 C 958.945312 696.601562 942.402344 686.378906 926.371094 675.414062 C 911.117188 664.972656 897.503906 652.011719 882.210938 641.550781 C 844 615.402344 810.949219 589.644531 774.867188 560.660156 C 770.285156 556.976562 743.40625 538.714844 738.582031 538.632812 C 735.027344 538.574219 735.394531 542.195312 734.460938 544.660156 " fill-opacity="1" fill-rule="nonzero"/><path fill="#e75b4d" d="M 912.640625 465.828125 C 910.054688 463.824219 907.886719 462.277344 906.085938 460.894531 C 905.238281 460.238281 903.105469 458.46875 902.503906 457.738281 C 901.84375 456.941406 900.988281 455.71875 900.40625 454.902344 C 899.835938 454.089844 898.867188 451.707031 898.738281 451.167969 C 898.539062 450.332031 898.480469 449.664062 898.308594 448.101562 C 898.089844 446.097656 897.8125 440.597656 897.847656 438.730469 C 897.882812 436.820312 897.550781 432.683594 898.101562 428.679688 C 898.867188 423.105469 900.117188 421.507812 901.871094 418.777344 C 903.3125 416.546875 907.238281 412.402344 910.523438 410.800781 C 915.207031 408.507812 919.445312 408.203125 923.261719 407.691406 C 926.371094 407.273438 933.105469 407.136719 935.726562 407.007812 C 938.957031 406.847656 949.707031 406.882812 953.300781 406.941406 C 961.914062 407.078125 962.941406 406.847656 971.898438 407.929688 C 980.839844 409.007812 987.230469 412.714844 991.191406 416.773438 C 993.914062 419.566406 998.042969 428.007812 998.582031 439.371094 C 999.234375 453.226562 999.222656 469.714844 999.4375 474.492188 C 1000.160156 491.183594 999.980469 495.359375 1000.175781 508.363281 C 1000.195312 510.035156 1000.222656 513.789062 1000.035156 516.800781 C 999.996094 517.472656 999.546875 518.972656 998.996094 519.714844 C 998.609375 520.230469 997.242188 521.386719 997.242188 521.386719 C 996 522.355469 994.757812 522.613281 993.992188 522.804688 C 993.378906 522.957031 993.117188 522.960938 992.589844 522.972656 C 992.191406 522.984375 991.488281 522.894531 991.191406 522.792969 C 989.808594 522.328125 989.804688 522.285156 989.601562 522.1875 C 989.4375 522.105469 989.132812 521.9375 988.417969 521.511719 C 985.476562 519.761719 986.582031 520.4375 985.042969 519.394531 C 981.628906 517.074219 971.152344 509.441406 970.601562 509.058594 C 958.636719 500.777344 958.707031 500.628906 949.5 494.050781 C 946.304688 491.769531 944.675781 490.324219 942.667969 488.800781 C 939.453125 486.355469 936.640625 484.335938 935.078125 483.023438 C 932.03125 480.457031 928.253906 477.859375 922.824219 473.707031 C 920.085938 471.605469 918.175781 470.121094 912.640625 465.828125 Z M 912.640625 465.828125 " fill-opacity="1" fill-rule="nonzero"/><path fill="#e75b4d" d="M 760.835938 368.101562 C 757.96875 367.25 748.988281 364.988281 743.5 364.808594 C 738 364.625 728.53125 366.421875 724.929688 367.765625 C 714.980469 371.464844 708.246094 376.585938 701.867188 380.339844 C 670.832031 398.59375 582.269531 459.304688 554.5 481.867188 C 474.28125 547.046875 441.34375 559.824219 364.941406 631.207031 C 334.324219 659.816406 307.507812 700.59375 335.726562 741.640625 C 351.550781 764.65625 374.292969 773.507812 395.039062 771.480469 C 408.644531 770.148438 418.332031 765.558594 431.917969 757.570312 C 459.683594 741.238281 508.101562 700.777344 534.332031 682.261719 C 585.855469 645.894531 621.734375 617.304688 671.105469 582.457031 C 688.332031 570.296875 705.582031 558.808594 722.953125 546.867188 C 726.871094 544.171875 731.921875 540.175781 736.957031 540.472656 C 741.402344 540.734375 742.574219 541.480469 746.472656 543.546875 C 756.078125 548.632812 764.203125 556.082031 773.101562 562.609375 C 785.667969 571.824219 797.851562 580.207031 809.933594 590.023438 C 840.273438 614.675781 862.78125 631.390625 894.09375 654.660156 C 906.933594 664.207031 933.285156 683.054688 947.914062 694.203125 C 967.46875 709.109375 1004.03125 735.792969 1023.613281 747.957031 C 1061.011719 771.175781 1100.121094 788.730469 1135.214844 744.867188 C 1168.273438 703.546875 1134.425781 659.589844 1103.03125 632.257812 C 1067.171875 601.039062 1029.691406 570.6875 991.996094 543.039062 C 975.210938 530.730469 962.308594 520.808594 948.300781 510.078125 C 939.65625 503.449219 934.230469 499.84375 924.164062 491.773438 C 897.488281 470.394531 885.738281 463.015625 857.199219 439.878906 C 822.480469 411.730469 814.03125 406.113281 777.199219 377.675781 C 767.832031 370.433594 763.726562 369.472656 760.835938 368.101562 Z M 760.835938 368.101562 " fill-opacity="1" fill-rule="nonzero"/><path fill="#f7c24d" d="M 535.96875 330.382812 C 537.082031 328.644531 537.992188 326.050781 539.109375 322.582031 C 540.316406 318.832031 541.03125 316.238281 542.515625 314.378906 C 545.042969 311.214844 547.09375 316.3125 548.800781 322.3125 C 549.863281 326.046875 550.460938 329.148438 551.613281 330.386719 C 553.464844 332.378906 555.898438 331.855469 560.011719 332.285156 C 564.636719 332.769531 571.785156 333.480469 568.953125 335.984375 C 566.597656 338.070312 563.960938 339.179688 562.707031 340.035156 C 560.425781 341.601562 560.011719 342.015625 556.613281 344.703125 C 555.390625 345.671875 557.949219 349.644531 559.605469 354.445312 C 561.359375 359.539062 563.578125 365.253906 561.183594 364.921875 C 557.769531 364.453125 555.003906 361.523438 552.789062 359.734375 C 549.40625 357 547.183594 354.460938 544.09375 353.523438 C 541.988281 352.886719 539.230469 355.867188 534.953125 359.316406 C 530.054688 363.265625 524.46875 367.4375 524.789062 362.933594 C 524.992188 360.058594 527.039062 356.074219 528.195312 353.277344 C 530.351562 348.058594 531.851562 345.25 530.597656 343.890625 C 529.777344 343 526.425781 341.328125 523.195312 339.507812 C 518.332031 336.765625 513.855469 333.417969 518.621094 332.148438 C 519.015625 332.042969 523.460938 331.496094 527.59375 331.390625 C 531.496094 331.292969 534.972656 331.949219 535.96875 330.382812 Z M 535.96875 330.382812 " fill-opacity="1" fill-rule="nonzero"/><path fill="#f7c24d" d="M 402.554688 362.546875 C 406.523438 349.511719 412.242188 333.660156 419.136719 343.753906 C 419.878906 344.839844 421.976562 349.085938 422.917969 350.78125 C 426.398438 357.0625 428.003906 361.308594 431.167969 368.253906 C 435.402344 377.550781 438.292969 388.164062 443.0625 392.703125 C 446.371094 395.851562 454.863281 394.769531 466.96875 395.585938 C 473.949219 396.054688 481.542969 395.621094 489.835938 397.671875 C 498.835938 399.894531 498.101562 404.574219 492.925781 409.355469 C 489.324219 412.679688 481.925781 417.734375 476.242188 421.257812 C 466.46875 427.3125 457.875 430.496094 457.671875 433.714844 C 457.410156 437.796875 462.980469 447.835938 467.902344 457.796875 C 472.449219 466.996094 476.5625 476.613281 475.371094 482.800781 C 474.113281 489.316406 466.28125 487.050781 461.890625 484.316406 C 446.292969 474.613281 453.667969 480.257812 443.417969 473.25 C 433.359375 466.371094 426.414062 459.003906 420.738281 459.214844 C 417.722656 459.328125 410.761719 463.304688 401.074219 472.96875 C 396.425781 477.601562 384.789062 488.335938 380.613281 490.777344 C 375.160156 493.96875 370.976562 496.820312 367.722656 494.175781 C 362.554688 489.972656 369.160156 474.683594 373.902344 459.9375 C 378.339844 446.128906 382.074219 440.902344 379.496094 436.601562 C 376.824219 432.152344 368.960938 429.429688 361.890625 426.148438 C 351.679688 421.414062 349.671875 421.359375 344.648438 418.132812 C 340.234375 415.296875 335.726562 412.988281 334.90625 409.132812 C 334.214844 405.878906 336.761719 403.578125 341.082031 401.949219 C 346.398438 399.941406 354.394531 398.957031 362.34375 398.480469 C 372.898438 397.847656 385.472656 397.117188 388.773438 395.125 C 394.472656 391.679688 395.917969 387.820312 397.335938 383.199219 C 400.492188 372.929688 400.808594 370.769531 402.554688 362.546875 Z M 402.554688 362.546875 " fill-opacity="1" fill-rule="nonzero"/><path fill="#673b2c" d="M 877.652344 748.324219 C 861.320312 747.949219 844.621094 757.453125 837.984375 768.011719 C 820.671875 795.535156 834.1875 839.371094 871.695312 841.515625 C 930.628906 844.882812 938.210938 749.707031 877.652344 748.324219 Z M 877.652344 748.324219 " fill-opacity="1" fill-rule="nonzero"/><path fill="#673b2c" d="M 599.199219 748.261719 C 582.457031 747.882812 565.351562 757.550781 558.546875 768.285156 C 540.808594 796.285156 554.660156 840.886719 593.097656 843.066406 C 653.488281 846.496094 661.257812 749.667969 599.199219 748.261719 Z M 599.199219 748.261719 " fill-opacity="1" fill-rule="nonzero"/><path fill="#f5b685" d="M 527.53125 848.375 C 508.832031 849.890625 502.101562 851.121094 489.691406 862.960938 C 484.054688 868.34375 480.945312 872.503906 480.230469 878.4375 C 479.78125 882.171875 480.273438 886.59375 481.675781 892.464844 C 483.871094 901.640625 493 907.402344 501.128906 909.984375 C 509.828125 912.75 513.035156 915.015625 529.101562 914.253906 C 537.898438 913.839844 555.121094 908.453125 562.089844 902.621094 C 582.632812 885.441406 580.824219 871.558594 567.578125 860.457031 C 558.542969 852.875 540.257812 848.050781 527.53125 848.375 Z M 527.53125 848.375 " fill-opacity="1" fill-rule="nonzero"/><path fill="#f5b685" d="M 941.117188 914.378906 C 959.023438 915.054688 973.472656 913.425781 982.324219 904.4375 C 990.363281 896.265625 997.636719 881.722656 991.695312 869.171875 C 983.332031 851.515625 958.207031 849.359375 943.78125 850.871094 C 935.015625 851.789062 920.664062 855.089844 913.398438 860.539062 C 877.347656 887.566406 909.734375 913.515625 941.117188 914.378906 Z M 941.117188 914.378906 " fill-opacity="1" fill-rule="nonzero"/><path fill="#673b2c" d="M 905.589844 1056.214844 C 905.691406 1053.84375 905.804688 1051.460938 905.90625 1049.089844 " fill-opacity="1" fill-rule="nonzero"/><path fill="#673b2c" d="M 649.039062 862.980469 C 647.816406 855.378906 657.171875 853.789062 660.285156 856.894531 C 665.742188 862.347656 671.585938 876.277344 675.882812 882.410156 C 690.667969 903.503906 712.214844 911.417969 736.273438 911.765625 C 755.625 912.039062 775.214844 902.386719 788.578125 888.664062 C 794.160156 882.9375 798.363281 876.179688 802.660156 868.859375 C 804.925781 865.011719 806.941406 859.367188 809.78125 857.179688 C 815.957031 852.4375 823.300781 855.929688 822.734375 862.828125 C 820.746094 887.109375 798.707031 909.785156 781.851562 920.085938 C 765.636719 930 744.363281 933.210938 724.984375 932.269531 C 693.6875 930.765625 655.234375 901.550781 649.039062 862.980469 Z M 649.039062 862.980469 " fill-opacity="1" fill-rule="nonzero"/></svg>